<svg xmlns="http://www.w3.org/2000/svg" width="13.456" height="16.061" viewBox="0 0 13.456 16.061">
  <g id="fi-rr-marker" transform="translate(-1.945 0.002)">
    <path id="Path_167" data-name="Path 167" d="M11.331,6A3.153,3.153,0,0,0,8,8.938a3.153,3.153,0,0,0,3.331,2.938,3.153,3.153,0,0,0,3.331-2.938A3.153,3.153,0,0,0,11.331,6Zm0,4.408A1.577,1.577,0,0,1,9.666,8.938a1.577,1.577,0,0,1,1.666-1.469A1.577,1.577,0,0,1,13,8.938,1.577,1.577,0,0,1,11.331,10.408Z" transform="translate(-2.658 -2.979)"/>
    <path id="Path_168" data-name="Path 168" d="M8.673,16.059a3.527,3.527,0,0,1-2.885-1.472c-2.55-3.518-3.844-6.162-3.844-7.86a6.728,6.728,0,0,1,13.456,0c0,1.7-1.293,4.343-3.844,7.86a3.527,3.527,0,0,1-2.885,1.472Zm0-14.6A5.275,5.275,0,0,0,3.4,6.727c0,1.345,1.267,3.832,3.566,7a2.1,2.1,0,0,0,3.406,0c2.3-3.171,3.566-5.658,3.566-7A5.275,5.275,0,0,0,8.673,1.459Z" transform="translate(0 0)"/>
  </g>
</svg>
