<svg xmlns="http://www.w3.org/2000/svg" xmlns:xlink="http://www.w3.org/1999/xlink" width="20.937" height="20.937" viewBox="0 0 20.937 20.937">
  <defs>
    <clipPath id="clip-path">
      <rect width="20.937" height="20.937" fill="none"/>
    </clipPath>
  </defs>
  <g id="Repeat_Grid_3" data-name="Repeat Grid 3" clip-path="url(#clip-path)">
    <g transform="translate(-33.165 -490.541)">
      <path id="fi-rr-world" d="M10.468,0A10.468,10.468,0,1,0,20.937,10.468,10.468,10.468,0,0,0,10.468,0Zm8.724,10.468a8.669,8.669,0,0,1-1.45,4.8L16.7,14.232a.436.436,0,0,1-.127-.308v-.839a2.617,2.617,0,0,0-2.617-2.617H11.341a.872.872,0,0,1-.872-.872V9.16a.436.436,0,0,1,.436-.436,2.181,2.181,0,0,0,2.181-2.181V5.67a.436.436,0,0,1,.436-.436h1.2A2.195,2.195,0,0,0,16.266,4.6l.329-.329a8.7,8.7,0,0,1,2.6,6.2Zm-17.4.84,2.755,2.755a2.6,2.6,0,0,0,1.851.767h2.33A.872.872,0,0,1,9.6,15.7v3.445a8.738,8.738,0,0,1-7.808-7.839Zm9.553,7.839V15.7a2.617,2.617,0,0,0-2.617-2.617H6.393a.872.872,0,0,1-.618-.256L1.887,8.941A8.7,8.7,0,0,1,15.228,3.167l-.2.2a.442.442,0,0,1-.308.127h-1.2A2.181,2.181,0,0,0,11.341,5.67v.872a.436.436,0,0,1-.436.436A2.181,2.181,0,0,0,8.724,9.16V9.6a2.617,2.617,0,0,0,2.617,2.617h2.617a.872.872,0,0,1,.872.872v.839a2.195,2.195,0,0,0,.639,1.541l1.166,1.166a8.7,8.7,0,0,1-5.294,2.515Z" transform="translate(33.165 490.541)"/>
    </g>
  </g>
</svg>
