<svg xmlns="http://www.w3.org/2000/svg" width="13.074" height="17.432" viewBox="0 0 13.074 17.432">
  <g id="fi-rr-user" transform="translate(-3)">
    <path id="Path_295" data-name="Path 295" d="M10.358,8.716A4.358,4.358,0,1,0,6,4.358a4.358,4.358,0,0,0,4.358,4.358Zm0-7.263A2.905,2.905,0,1,1,7.453,4.358a2.905,2.905,0,0,1,2.905-2.905Z" transform="translate(-0.821)" fill="#311a1a"/>
    <path id="Path_296" data-name="Path 296" d="M9.537,14A6.544,6.544,0,0,0,3,20.537a.726.726,0,1,0,1.453,0,5.084,5.084,0,0,1,10.168,0,.726.726,0,0,0,1.453,0A6.544,6.544,0,0,0,9.537,14Z" transform="translate(0 -3.832)" fill="#311a1a"/>
  </g>
</svg>
