<svg xmlns="http://www.w3.org/2000/svg" width="32" height="32" viewBox="0 0 32 32">
  <g id="Group_84" data-name="Group 84" transform="translate(0 -0.447)">
    <g id="Group_82" data-name="Group 82">
      <circle id="Ellipse_74" data-name="Ellipse 74" cx="16" cy="16" r="16" transform="translate(0 0.447)" fill="#e8a86d" opacity="0.3"/>
      <g id="fi-rr-marker" transform="translate(10.417 9.41)">
        <path id="Path_167" data-name="Path 167" d="M10.256,6a2.256,2.256,0,1,0,2.256,2.256A2.256,2.256,0,0,0,10.256,6Zm0,3.385a1.128,1.128,0,1,1,1.128-1.128A1.128,1.128,0,0,1,10.256,9.385Z" transform="translate(-4.584 -2.614)" fill="#f39947"/>
        <path id="Path_168" data-name="Path 168" d="M7.617,13.538A2.973,2.973,0,0,1,5.185,12.3C3.035,9.331,1.945,7.1,1.945,5.67a5.672,5.672,0,1,1,11.344,0c0,1.432-1.09,3.661-3.24,6.627a2.973,2.973,0,0,1-2.432,1.241Zm0-12.308A4.447,4.447,0,0,0,3.175,5.671c0,1.134,1.068,3.231,3.006,5.9a1.774,1.774,0,0,0,2.871,0c1.938-2.673,3.006-4.77,3.006-5.9A4.447,4.447,0,0,0,7.617,1.229Z" transform="translate(-1.945 0.002)" fill="#f39947"/>
      </g>
    </g>
  </g>
</svg>
