<svg xmlns="http://www.w3.org/2000/svg" width="14.827" height="13.583" viewBox="0 0 14.827 13.583">
  <path id="fi-rr-eye-crossed" d="M14.37,6.2a9.8,9.8,0,0,0-2.082-2.414l1.729-1.729a.618.618,0,1,0-.873-.873l-1.88,1.883A7.444,7.444,0,0,0,7.409,2.023,8.181,8.181,0,0,0,.449,6.2a3.031,3.031,0,0,0,0,3.188A9.8,9.8,0,0,0,2.53,11.8L.8,13.532a.618.618,0,1,0,.873.873L3.559,12.52a7.444,7.444,0,0,0,3.85,1.046A8.181,8.181,0,0,0,14.37,9.388,3.031,3.031,0,0,0,14.37,6.2ZM1.5,8.742a1.8,1.8,0,0,1,0-1.895A6.991,6.991,0,0,1,7.409,3.258a6.238,6.238,0,0,1,2.943.719L9.109,5.221A3.083,3.083,0,0,0,4.836,9.495L3.409,10.921A8.475,8.475,0,0,1,1.5,8.742Zm7.761-.947A1.853,1.853,0,0,1,7.409,9.647a1.822,1.822,0,0,1-.794-.185L9.077,7A1.822,1.822,0,0,1,9.262,7.795Zm-3.705,0A1.853,1.853,0,0,1,7.409,5.942a1.822,1.822,0,0,1,.794.185L5.742,8.588a1.822,1.822,0,0,1-.185-.794Zm7.761.947a6.991,6.991,0,0,1-5.908,3.589,6.238,6.238,0,0,1-2.943-.719l1.243-1.243A3.083,3.083,0,0,0,9.983,6.094l1.427-1.427a8.475,8.475,0,0,1,1.908,2.179,1.8,1.8,0,0,1,0,1.895Z" transform="translate(0.004 -1.003)"/>
</svg>
