<svg xmlns="http://www.w3.org/2000/svg" width="16.271" height="16.271" viewBox="0 0 16.271 16.271">
  <path id="fi-rr-cross-small" d="M21.6,6.086h0a1.293,1.293,0,0,0-1.828,0l-5.929,5.929L7.914,6.086a1.293,1.293,0,0,0-1.828,0h0a1.293,1.293,0,0,0,0,1.828l5.929,5.929L6.086,19.771a1.293,1.293,0,0,0,0,1.828h0a1.293,1.293,0,0,0,1.828,0l5.929-5.929L19.771,21.6a1.293,1.293,0,0,0,1.828,0h0a1.293,1.293,0,0,0,0-1.828l-5.929-5.929L21.6,7.914A1.293,1.293,0,0,0,21.6,6.086Z" transform="translate(-5.707 -5.707)" fill="#cc6a11"/>
</svg>
