<svg xmlns="http://www.w3.org/2000/svg" width="13.793" height="12.643" viewBox="0 0 13.793 12.643">
  <path id="fi-rr-envelope" d="M10.919,1H2.873A2.877,2.877,0,0,0,0,3.873v6.9a2.877,2.877,0,0,0,2.873,2.873h8.046a2.877,2.877,0,0,0,2.873-2.873v-6.9A2.877,2.877,0,0,0,10.919,1ZM2.873,2.149h8.046a1.724,1.724,0,0,1,1.6,1.084l-4.4,4.4a1.728,1.728,0,0,1-2.439,0l-4.4-4.4a1.724,1.724,0,0,1,1.6-1.084Zm8.046,10.344H2.873A1.724,1.724,0,0,1,1.149,10.77V4.736L4.864,8.448a2.877,2.877,0,0,0,4.064,0l3.715-3.713V10.77A1.724,1.724,0,0,1,10.919,12.494Z" transform="translate(0 -1)"/>
</svg>
