<svg xmlns="http://www.w3.org/2000/svg" width="13.821" height="16.587" viewBox="0 0 13.821 16.587">
  <g id="fi-rr-unlock" transform="translate(-2 0.003)">
    <path id="Path_287" data-name="Path 287" d="M12.366,5.528H5.455V4.836a3.455,3.455,0,0,1,6.479-1.674.691.691,0,0,0,1.209-.671A4.837,4.837,0,0,0,4.073,4.836v.984A3.455,3.455,0,0,0,2,8.983v4.146a3.459,3.459,0,0,0,3.455,3.455h6.911a3.459,3.459,0,0,0,3.455-3.455V8.983A3.459,3.459,0,0,0,12.366,5.528Zm2.073,7.6A2.073,2.073,0,0,1,12.366,15.2H5.455a2.073,2.073,0,0,1-2.073-2.073V8.983A2.073,2.073,0,0,1,5.455,6.91h6.911a2.073,2.073,0,0,1,2.073,2.073Z" transform="translate(0 0)"/>
    <path id="Path_288" data-name="Path 288" d="M11.691,14a.691.691,0,0,0-.691.691v1.382a.691.691,0,0,0,1.382,0V14.691A.691.691,0,0,0,11.691,14Z" transform="translate(-2.781 -4.326)"/>
  </g>
</svg>
