<svg xmlns="http://www.w3.org/2000/svg" width="17.536" height="17.536" viewBox="0 0 17.536 17.536">
  <path id="fi-rr-pencil" d="M16.759.865A2.659,2.659,0,0,0,13,.865L1.074,12.792A3.643,3.643,0,0,0,0,15.385V16.89a.733.733,0,0,0,.733.733H2.239A3.642,3.642,0,0,0,4.831,16.55L16.759,4.622a2.659,2.659,0,0,0,0-3.757ZM3.794,15.513a2.216,2.216,0,0,1-1.555.644H1.467v-.772a2.185,2.185,0,0,1,.645-1.555l9.052-9.052L12.85,6.464ZM15.721,3.585,13.884,5.424,12.2,3.741,14.035,1.9a1.191,1.191,0,0,1,1.683,1.687Z" transform="translate(0 -0.088)" fill="#cc6a11"/>
</svg>
