<svg xmlns="http://www.w3.org/2000/svg" width="14.421" height="11.226" viewBox="0 0 14.421 11.226">
  <g id="fi-rr-eye" transform="translate(0.004 -2.655)">
    <path id="Path_98" data-name="Path 98" d="M13.976,6.718a7.955,7.955,0,0,0-6.77-4.063A7.955,7.955,0,0,0,.436,6.718a2.948,2.948,0,0,0,0,3.1,7.955,7.955,0,0,0,6.77,4.063,7.955,7.955,0,0,0,6.77-4.063A2.948,2.948,0,0,0,13.976,6.718ZM12.952,9.189a6.8,6.8,0,0,1-5.746,3.49A6.8,6.8,0,0,1,1.46,9.189a1.753,1.753,0,0,1,0-1.843,6.8,6.8,0,0,1,5.746-3.49,6.791,6.791,0,0,1,5.746,3.49A1.753,1.753,0,0,1,12.952,9.189Z" transform="translate(0 0)"/>
    <path id="Path_99" data-name="Path 99" d="M10,7a3,3,0,1,0,3,3,3,3,0,0,0-3-3Zm0,4.805a1.8,1.8,0,1,1,1.8-1.8A1.8,1.8,0,0,1,10,11.805Z" transform="translate(-2.797 -1.735)"/>
  </g>
</svg>
