<svg xmlns="http://www.w3.org/2000/svg" width="11.854" height="11.854" viewBox="0 0 11.854 11.854">
  <g id="fi-rr-settings-sliders" transform="translate(0 0)">
    <path id="Path_212" data-name="Path 212" d="M.494,2.346H1.845a1.841,1.841,0,0,0,3.554,0H11.36a.494.494,0,0,0,0-.988H5.4a1.841,1.841,0,0,0-3.554,0H.494a.494.494,0,1,0,0,.988ZM3.622.988a.864.864,0,1,1-.864.864A.864.864,0,0,1,3.622.988Z" transform="translate(0 0)" fill="#7a7a7a"/>
    <path id="Path_213" data-name="Path 213" d="M11.36,9.608H10.009a1.841,1.841,0,0,0-3.553,0H.494a.494.494,0,0,0,0,.988H6.455a1.841,1.841,0,0,0,3.553,0H11.36a.494.494,0,0,0,0-.988ZM8.232,10.966A.864.864,0,1,1,9.1,10.1a.864.864,0,0,1-.864.864Z" transform="translate(0 -4.175)" fill="#7a7a7a"/>
    <path id="Path_214" data-name="Path 214" d="M11.36,17.858H5.4a1.841,1.841,0,0,0-3.554,0H.494a.494.494,0,0,0,0,.988H1.845a1.841,1.841,0,0,0,3.554,0H11.36a.494.494,0,0,0,0-.988ZM3.622,19.216a.864.864,0,1,1,.864-.864A.864.864,0,0,1,3.622,19.216Z" transform="translate(0 -8.351)" fill="#7a7a7a"/>
  </g>
</svg>
