<svg xmlns="http://www.w3.org/2000/svg" width="18.333" height="22.001" viewBox="0 0 18.333 22.001">
  <path id="fi-rr-shield-interrogation" d="M11.167,13.75a.917.917,0,0,1-.917-.917,3.624,3.624,0,0,1,1.8-2.929,1.828,1.828,0,0,0,.917-1.947A1.855,1.855,0,0,0,11.5,6.491,1.833,1.833,0,0,0,9.333,8.3.917.917,0,0,1,7.5,8.3a3.664,3.664,0,1,1,5.435,3.213,1.821,1.821,0,0,0-.852,1.323.917.917,0,0,1-.917.917Zm.727,8.03c1.98-.8,8.44-3.924,8.44-10.741V6.3a4.577,4.577,0,0,0-3.141-4.351L11.455.047a.9.9,0,0,0-.578,0l-5.737,1.9A4.577,4.577,0,0,0,2,6.3v4.74c0,6.015,6.421,9.695,8.39,10.679a2.137,2.137,0,0,0,.776.281,2.055,2.055,0,0,0,.727-.22ZM16.615,3.689A2.75,2.75,0,0,1,18.5,6.3v4.74c0,5.668-5.58,8.352-7.29,9.039h0C9.479,19.213,3.833,16,3.833,11.039V6.3A2.75,2.75,0,0,1,5.718,3.689l5.448-1.806ZM11.167,15.583a.917.917,0,1,0,.917.917A.917.917,0,0,0,11.167,15.583Z" transform="translate(-2 0.001)"/>
</svg>
