<svg id="Group_54" data-name="Group 54" xmlns="http://www.w3.org/2000/svg" width="43" height="43" viewBox="0 0 43 43">
  <circle id="Ellipse_72" data-name="Ellipse 72" cx="21.5" cy="21.5" r="21.5" fill="#f39947"/>
  <path id="fi-rr-trophy" d="M10.277,10.9c4.474-.025,6.067-2.394,6.067-4.427a2.384,2.384,0,0,0-1.882-2.328c.093-.264.173-.505.227-.689A2.647,2.647,0,0,0,14.262,1.1,2.71,2.71,0,0,0,12.074,0h-7.8A2.71,2.71,0,0,0,2.082,1.1a2.647,2.647,0,0,0-.426,2.355c.054.183.136.425.227.689A2.384,2.384,0,0,0,0,6.47C0,8.5,1.593,10.872,6.067,10.9a3.446,3.446,0,0,1,.062.627v2.1a1.282,1.282,0,0,1-1.362,1.362H4.086a.681.681,0,1,0,0,1.362h8.172a.681.681,0,0,0,0-1.362h-.676a1.284,1.284,0,0,1-1.367-1.362v-2.1a3.445,3.445,0,0,1,.062-.627Zm3.684-5.448A1.022,1.022,0,0,1,14.982,6.47c0,1.385-1.1,2.86-4.111,3.044a3.3,3.3,0,0,1,.519-.559,10.305,10.305,0,0,0,2.538-3.513C13.94,5.442,13.949,5.448,13.961,5.448ZM1.362,6.47A1.022,1.022,0,0,1,2.384,5.448c.012,0,.021-.006.032-.007A10.305,10.305,0,0,0,4.954,8.955a3.3,3.3,0,0,1,.519.559C2.458,9.33,1.362,7.855,1.362,6.47Zm5.8,8.513a2.779,2.779,0,0,0,.332-1.362v-2.1A4.719,4.719,0,0,0,5.836,7.917,10.445,10.445,0,0,1,2.962,3.065a1.294,1.294,0,0,1,.211-1.154,1.358,1.358,0,0,1,1.1-.549h7.8a1.358,1.358,0,0,1,1.1.552,1.294,1.294,0,0,1,.211,1.154,10.445,10.445,0,0,1-2.874,4.85,4.718,4.718,0,0,0-1.656,3.605v2.1a2.779,2.779,0,0,0,.332,1.362Z" transform="translate(13.328 13.328)" fill="#fff"/>
</svg>
