<svg xmlns="http://www.w3.org/2000/svg" width="12.28" height="12.28" viewBox="0 0 12.28 12.28">
  <path id="fi-rr-shop" d="M12.28,5.117a.506.506,0,0,0-.012-.111L11.6,2A2.542,2.542,0,0,0,9.1,0H3.176a2.542,2.542,0,0,0-2.5,2l-.667,3A.506.506,0,0,0,0,5.117v.512A2.038,2.038,0,0,0,.512,6.981V9.721A2.561,2.561,0,0,0,3.07,12.28H9.21a2.561,2.561,0,0,0,2.558-2.558V6.981a2.038,2.038,0,0,0,.512-1.352ZM1.023,5.172l.655-2.947a1.526,1.526,0,0,1,1.5-1.2h.405V2.558a.512.512,0,1,0,1.023,0V1.023h3.07V2.558a.512.512,0,0,0,1.023,0V1.023H9.1a1.526,1.526,0,0,1,1.5,1.2l.655,2.947v.456a1.023,1.023,0,0,1-1.023,1.023H9.722A1.023,1.023,0,0,1,8.7,5.628a.512.512,0,0,0-1.023,0A1.023,1.023,0,0,1,6.652,6.652H5.628A1.023,1.023,0,0,1,4.6,5.628a.512.512,0,1,0-1.023,0A1.023,1.023,0,0,1,2.558,6.652H2.047A1.023,1.023,0,0,1,1.023,5.628ZM9.21,11.256H3.07A1.535,1.535,0,0,1,1.535,9.721V7.61a2.035,2.035,0,0,0,.512.065h.512a2.042,2.042,0,0,0,1.535-.694,2.042,2.042,0,0,0,1.535.694H6.652a2.042,2.042,0,0,0,1.535-.694,2.042,2.042,0,0,0,1.535.694h.512a2.035,2.035,0,0,0,.512-.065V9.721A1.535,1.535,0,0,1,9.21,11.256Z" transform="translate(0 0)" fill="#fff"/>
</svg>
