<svg xmlns="http://www.w3.org/2000/svg" width="21.629" height="21.629" viewBox="0 0 21.629 21.629">
  <path id="fi-rr-text" d="M17.123,0H4.506A4.511,4.511,0,0,0,0,4.506V17.123a4.511,4.511,0,0,0,4.506,4.506H17.123a4.511,4.511,0,0,0,4.506-4.506V4.506A4.511,4.511,0,0,0,17.123,0Zm2.7,17.123a2.7,2.7,0,0,1-2.7,2.7H4.506a2.7,2.7,0,0,1-2.7-2.7V4.506a2.7,2.7,0,0,1,2.7-2.7H17.123a2.7,2.7,0,0,1,2.7,2.7Zm-3.6-9.012a.9.9,0,1,1-1.8,0,.9.9,0,0,0-.9-.9h-1.8v7.21h.9a.9.9,0,0,1,0,1.8h-3.6a.9.9,0,1,1,0-1.8h.9V7.21h-1.8a.9.9,0,0,0-.9.9.9.9,0,1,1-1.8,0,2.7,2.7,0,0,1,2.7-2.7h5.407A2.7,2.7,0,0,1,16.221,8.111Z"/>
</svg>
