<svg xmlns="http://www.w3.org/2000/svg" width="21.028" height="22.948" viewBox="0 0 21.028 22.948">
  <g id="fi-rr-power" transform="translate(-1)">
    <path id="Path_201" data-name="Path 201" d="M14.38,3.8h0a.975.975,0,0,0,.6.885,8.6,8.6,0,0,1,5.133,8.14,8.6,8.6,0,1,1-17.2-.279A8.6,8.6,0,0,1,8.045,4.69a.978.978,0,0,0,.6-.887h0a.956.956,0,0,0-1.313-.888,10.513,10.513,0,1,0,8.363,0A.956.956,0,0,0,14.38,3.8Z" transform="translate(0 -0.126)"/>
    <rect id="Rectangle_6" data-name="Rectangle 6" width="1.911" height="7.646" rx="0.956" transform="translate(10.557)"/>
  </g>
</svg>
