<svg xmlns="http://www.w3.org/2000/svg" xmlns:xlink="http://www.w3.org/1999/xlink" width="16.169" height="16.169" viewBox="0 0 16.169 16.169">
  <defs>
    <clipPath id="clip-path">
      <rect width="16.169" height="16.169" fill="none"/>
    </clipPath>
  </defs>
  <g id="Repeat_Grid_1" data-name="Repeat Grid 1" clip-path="url(#clip-path)">
    <g transform="translate(-103 -725.831)">
      <path id="fi-rr-bell-ring" d="M14.077,10.328l-2.545,4.147A3.533,3.533,0,0,1,8.92,16.144a3.592,3.592,0,0,1-.424.025,3.521,3.521,0,0,1-2.024-.643A3.2,3.2,0,0,1,1.958,11.1l-.887-.885a3.543,3.543,0,0,1,.644-5.524l3.891-2.4a5.986,5.986,0,0,1,6.968.371l1.119-1.118a.674.674,0,1,1,.954.953L13.531,3.614a6.022,6.022,0,0,1,.546,6.715ZM5.444,14.583l-2.51-2.506a1.831,1.831,0,0,0,.312,2.2A1.91,1.91,0,0,0,5.444,14.583Zm6.694-10.51a4.653,4.653,0,0,0-5.815-.638l-3.9,2.4a2.2,2.2,0,0,0-.4,3.426l4.919,4.912a2.205,2.205,0,0,0,3.437-.4l2.534-4.126a4.668,4.668,0,0,0-.777-5.575ZM13,16.168a.674.674,0,0,1-.4-1.218,5.815,5.815,0,0,0,2.237-3.643.675.675,0,0,1,1.318.29A7.207,7.207,0,0,1,13.4,16.039.676.676,0,0,1,13,16.168ZM.676,3.866a.674.674,0,0,1-.54-1.074A7.216,7.216,0,0,1,4.666.013a.674.674,0,1,1,.27,1.32,5.829,5.829,0,0,0-3.72,2.26A.675.675,0,0,1,.676,3.866Z" transform="translate(102.996 725.832)" fill="#cc6a11"/>
    </g>
  </g>
</svg>
