<svg xmlns="http://www.w3.org/2000/svg" width="13.816" height="13.792" viewBox="0 0 13.816 13.792">
  <path id="Path_596" data-name="Path 596" d="M9.58,12.637A9.477,9.477,0,0,1,.115,3.173,2.827,2.827,0,0,1,2.942.346a2.421,2.421,0,0,1,.473.043A2.329,2.329,0,0,1,3.858.5a.615.615,0,0,1,.4.461L5.1,4.648a.615.615,0,0,1-.16.565c-.08.086-.086.092-.842.486A6.09,6.09,0,0,0,7.091,8.7c.4-.762.406-.768.492-.848a.615.615,0,0,1,.565-.16l3.687.842a.615.615,0,0,1,.442.4,2.67,2.67,0,0,1,.117.449,2.921,2.921,0,0,1,.037.467A2.827,2.827,0,0,1,9.58,12.637Z" transform="translate(0.635 0.404)" fill="none" stroke="#000" stroke-width="1.5"/>
</svg>
