<svg xmlns="http://www.w3.org/2000/svg" xmlns:xlink="http://www.w3.org/1999/xlink" width="18.02" height="18.02" viewBox="0 0 18.02 18.02">
  <defs>
    <clipPath id="clip-path">
      <rect width="18.02" height="18.02" fill="none"/>
    </clipPath>
  </defs>
  <g id="fi-rr-edit" clip-path="url(#clip-path)">
    <g id="fi-rr-edit-2" data-name="fi-rr-edit" transform="translate(0 0)">
      <path id="Path_90" data-name="Path 90" d="M15.253.709,6.1,9.864A3.729,3.729,0,0,0,5,12.518v1.008a.751.751,0,0,0,.751.751H6.759a3.729,3.729,0,0,0,2.654-1.1l9.154-9.154a2.346,2.346,0,0,0,0-3.314,2.4,2.4,0,0,0-3.314,0Zm2.253,2.253L8.352,12.116a2.268,2.268,0,0,1-1.593.659H6.5v-.258a2.268,2.268,0,0,1,.659-1.593l9.154-9.154a.862.862,0,0,1,1.191,0,.843.843,0,0,1,0,1.191Z" transform="translate(-1.246 -0.011)"/>
      <path id="Path_91" data-name="Path 91" d="M17.269,6.742a.751.751,0,0,0-.751.751v3.77h-3a2.252,2.252,0,0,0-2.253,2.253v3H3.754A2.253,2.253,0,0,1,1.5,14.266V3.754A2.253,2.253,0,0,1,3.754,1.5h6.789a.751.751,0,1,0,0-1.5H3.754A3.759,3.759,0,0,0,0,3.754V14.266A3.759,3.759,0,0,0,3.754,18.02h8.517a3.73,3.73,0,0,0,2.655-1.1l1.994-2a3.73,3.73,0,0,0,1.1-2.654V7.493A.751.751,0,0,0,17.269,6.742Zm-3.405,9.117a2.234,2.234,0,0,1-1.1.6V13.515a.751.751,0,0,1,.751-.751h2.947a2.265,2.265,0,0,1-.6,1.1Z"/>
    </g>
  </g>
</svg>
