<svg xmlns="http://www.w3.org/2000/svg" width="18.37" height="20.042" viewBox="0 0 18.37 20.042">
  <path id="fi-rr-bookmark" d="M16.979,20.04a2.338,2.338,0,0,1-1.659-.7l-5.135-5.105L5.05,19.346a2.338,2.338,0,0,1-2.584.509A2.338,2.338,0,0,1,1,17.663V4.175A4.175,4.175,0,0,1,5.175,0h10.02A4.175,4.175,0,0,1,19.37,4.175V17.663a2.338,2.338,0,0,1-1.462,2.191,2.394,2.394,0,0,1-.928.185ZM5.175,1.67a2.5,2.5,0,0,0-2.5,2.5V17.663a.7.7,0,0,0,1.2.5h0l5.73-5.7a.835.835,0,0,1,1.177,0L16.5,18.162a.7.7,0,0,0,1.2-.5V4.175a2.5,2.5,0,0,0-2.5-2.5Z" transform="translate(-1)" fill="#f39947"/>
</svg>
