<svg xmlns="http://www.w3.org/2000/svg" xmlns:xlink="http://www.w3.org/1999/xlink" width="17.464" height="17.464" viewBox="0 0 17.464 17.464">
  <defs>
    <clipPath id="clip-path">
      <rect width="17.464" height="17.464" fill="none"/>
    </clipPath>
  </defs>
  <g id="Repeat_Grid_1" data-name="Repeat Grid 1" clip-path="url(#clip-path)">
    <g transform="translate(-34.165 -235)">
      <path id="fi-rr-trophy" d="M10.981,11.643c4.781-.026,6.483-2.558,6.483-4.73a2.547,2.547,0,0,0-2.011-2.488c.1-.282.185-.54.242-.736a2.828,2.828,0,0,0-.456-2.516A2.9,2.9,0,0,0,12.9,0H4.563A2.9,2.9,0,0,0,2.224,1.173a2.828,2.828,0,0,0-.456,2.516c.057.2.146.454.242.736A2.547,2.547,0,0,0,0,6.913c0,2.171,1.7,4.7,6.483,4.73a3.682,3.682,0,0,1,.066.67v2.24a1.37,1.37,0,0,1-1.455,1.455H4.366a.728.728,0,0,0,0,1.455H13.1a.728.728,0,0,0,0-1.455h-.722a1.372,1.372,0,0,1-1.461-1.455V12.312a3.68,3.68,0,0,1,.066-.669Zm3.936-5.821a1.091,1.091,0,0,1,1.091,1.091c0,1.48-1.171,3.056-4.392,3.253a3.527,3.527,0,0,1,.554-.6,11.011,11.011,0,0,0,2.712-3.754C14.895,5.815,14.9,5.821,14.917,5.821ZM1.455,6.913A1.091,1.091,0,0,1,2.547,5.821c.012,0,.023-.007.034-.007A11.011,11.011,0,0,0,5.293,9.568a3.527,3.527,0,0,1,.554.6C2.626,9.969,1.455,8.393,1.455,6.913Zm6.195,9.1A2.969,2.969,0,0,0,8,14.553v-2.24A5.043,5.043,0,0,0,6.235,8.46,11.161,11.161,0,0,1,3.165,3.274,1.383,1.383,0,0,1,3.39,2.042a1.451,1.451,0,0,1,1.173-.586H12.9a1.451,1.451,0,0,1,1.173.589A1.383,1.383,0,0,1,14.3,3.277,11.161,11.161,0,0,1,11.229,8.46,5.041,5.041,0,0,0,9.46,12.312v2.241a2.969,2.969,0,0,0,.354,1.455Z" transform="translate(34.165 235)"/>
    </g>
  </g>
</svg>
