<svg xmlns="http://www.w3.org/2000/svg" xmlns:xlink="http://www.w3.org/1999/xlink" width="18.144" height="20.165" viewBox="0 0 18.144 20.165">
  <defs>
    <clipPath id="clip-path">
      <rect width="18.144" height="20.165" fill="none"/>
    </clipPath>
  </defs>
  <g id="fi-rr-settings" clip-path="url(#clip-path)">
    <g id="fi-rr-settings-2" data-name="fi-rr-settings" transform="translate(-1.203)">
      <path id="Path_215" data-name="Path 215" d="M11.361,8a3.361,3.361,0,1,0,3.361,3.361A3.361,3.361,0,0,0,11.361,8Zm0,5.041a1.68,1.68,0,1,1,1.68-1.68A1.68,1.68,0,0,1,11.361,13.041Z" transform="translate(-1.086 -1.278)"/>
      <path id="Path_216" data-name="Path 216" d="M18.084,11.679l-.373-.215a7.646,7.646,0,0,0,0-2.764l.373-.215a2.522,2.522,0,1,0-2.521-4.369l-.374.216A7.543,7.543,0,0,0,12.8,2.952V2.521a2.521,2.521,0,1,0-5.041,0v.431A7.543,7.543,0,0,0,5.361,4.335l-.376-.218A2.522,2.522,0,1,0,2.465,8.486l.373.215a7.646,7.646,0,0,0,0,2.764l-.373.215A2.522,2.522,0,1,0,4.986,16.05l.374-.216a7.543,7.543,0,0,0,2.395,1.38v.431a2.521,2.521,0,0,0,5.041,0v-.431a7.543,7.543,0,0,0,2.393-1.383l.376.217a2.522,2.522,0,1,0,2.521-4.369ZM15.943,8.506a5.922,5.922,0,0,1,0,3.151.84.84,0,0,0,.39.952l.911.526a.841.841,0,1,1-.84,1.456l-.912-.528a.84.84,0,0,0-1.021.139,5.868,5.868,0,0,1-2.725,1.575.84.84,0,0,0-.631.814v1.053a.84.84,0,0,1-1.68,0V16.593a.84.84,0,0,0-.631-.814A5.868,5.868,0,0,1,6.079,14.2a.84.84,0,0,0-1.021-.139l-.911.527a.84.84,0,1,1-.84-1.455l.911-.526a.84.84,0,0,0,.39-.952,5.922,5.922,0,0,1,0-3.151.84.84,0,0,0-.391-.949l-.911-.526a.841.841,0,0,1,.84-1.456l.912.528a.84.84,0,0,0,1.02-.135A5.868,5.868,0,0,1,8.8,4.39a.84.84,0,0,0,.631-.818V2.521a.84.84,0,0,1,1.68,0V3.573a.84.84,0,0,0,.631.814,5.868,5.868,0,0,1,2.725,1.579.84.84,0,0,0,1.021.139l.911-.527a.84.84,0,1,1,.84,1.455l-.911.526a.84.84,0,0,0-.389.949Z" transform="translate(0)"/>
    </g>
  </g>
</svg>
