<svg xmlns="http://www.w3.org/2000/svg" xmlns:xlink="http://www.w3.org/1999/xlink" width="18.235" height="18.215" viewBox="0 0 18.235 18.215">
  <defs>
    <clipPath id="clip-path">
      <rect width="18.235" height="18.215" fill="none"/>
    </clipPath>
  </defs>
  <g id="Repeat_Grid_2" data-name="Repeat Grid 2" clip-path="url(#clip-path)">
    <g transform="translate(-33.165 -362)">
      <path id="fi-rr-share" d="M14.666,11.131a3.537,3.537,0,0,0-2.914,1.536l-4.94-2.23a3.471,3.471,0,0,0,0-2.647l4.933-2.242a3.537,3.537,0,1,0-.628-2.006,3.516,3.516,0,0,0,.061.6L5.938,6.521A3.543,3.543,0,1,0,5.927,11.7l5.258,2.374a3.594,3.594,0,0,0-.06.6,3.542,3.542,0,1,0,3.541-3.541Zm0-9.613a2.024,2.024,0,1,1-2.023,2.024,2.024,2.024,0,0,1,2.023-2.024ZM3.536,11.131A2.024,2.024,0,1,1,5.559,9.107a2.024,2.024,0,0,1-2.023,2.024ZM14.666,16.7a2.024,2.024,0,1,1,2.024-2.024A2.024,2.024,0,0,1,14.666,16.7Z" transform="translate(33.191 362.001)"/>
    </g>
  </g>
</svg>
