<svg id="Group_61" data-name="Group 61" xmlns="http://www.w3.org/2000/svg" width="43" height="43" viewBox="0 0 43 43">
  <circle id="Ellipse_70" data-name="Ellipse 70" cx="21.5" cy="21.5" r="21.5" fill="#f39947"/>
  <path id="fi-rr-megaphone" d="M10.644,0a.626.626,0,0,0-.626.626c0,1.846-1.617,2.5-3.13,2.5H2.5A2.5,2.5,0,0,0,0,5.635V6.887A2.491,2.491,0,0,0,.948,8.834l2.236,4.991a2.024,2.024,0,0,0,1.849,1.2,1.867,1.867,0,0,0,1.7-2.63L5.359,9.391H6.887c1.513,0,3.13.658,3.13,2.5a.626.626,0,0,0,1.252,0V.626A.626.626,0,0,0,10.644,0ZM5.6,12.91a.615.615,0,0,1-.562.865.771.771,0,0,1-.7-.46L2.57,9.391H3.981Zm4.422-3.768a4.835,4.835,0,0,0-3.13-1H2.5A1.252,1.252,0,0,1,1.252,6.887V5.635A1.252,1.252,0,0,1,2.5,4.383H6.887a4.835,4.835,0,0,0,3.13-1Zm4.946.533a.626.626,0,0,1-.84.28l-1.252-.626a.626.626,0,1,1,.56-1.121l1.252.626a.626.626,0,0,1,.28.837ZM12.591,4.04a.626.626,0,0,1,.28-.84l1.252-.626a.626.626,0,1,1,.56,1.121l-1.252.626A.626.626,0,0,1,12.591,4.04Zm-.069,2.221a.626.626,0,0,1,.626-.626H14.4a.626.626,0,0,1,0,1.252H13.148A.626.626,0,0,1,12.522,6.261Z" transform="translate(14 14)" fill="#fff"/>
</svg>
