<svg xmlns="http://www.w3.org/2000/svg" width="12.75" height="17" viewBox="0 0 12.75 17">
  <g id="fi-rr-receipt" transform="translate(-3)">
    <path id="Path_206" data-name="Path 206" d="M12.208,0H6.542A3.546,3.546,0,0,0,3,3.542v12.75a.708.708,0,0,0,1.108.584L5.6,15.857l1.492,1.019a.708.708,0,0,0,.8,0l1.487-1.019,1.487,1.019a.708.708,0,0,0,.8,0l1.487-1.019,1.487,1.018a.708.708,0,0,0,1.107-.584V3.542A3.546,3.546,0,0,0,12.208,0Zm2.125,14.946-.779-.533a.708.708,0,0,0-.8,0l-1.487,1.019L9.777,14.413a.708.708,0,0,0-.8,0L7.489,15.432,6,14.413a.708.708,0,0,0-.8,0l-.785.533V3.542A2.125,2.125,0,0,1,6.542,1.417h5.667a2.125,2.125,0,0,1,2.125,2.125Z" fill="#311a1a"/>
    <rect id="Rectangle_7" data-name="Rectangle 7" width="7.083" height="1.417" rx="0.708" transform="translate(5.833 5.667)" fill="#311a1a"/>
    <rect id="Rectangle_8" data-name="Rectangle 8" width="5.667" height="1.417" rx="0.708" transform="translate(5.833 8.5)" fill="#311a1a"/>
  </g>
</svg>
