<svg id="Group_61" data-name="Group 61" xmlns="http://www.w3.org/2000/svg" width="43" height="43" viewBox="0 0 43 43">
  <circle id="Ellipse_70" data-name="Ellipse 70" cx="21.5" cy="21.5" r="21.5" fill="#f39947"/>
  <path id="fi-rr-time-quarter-to" d="M16.925,8.463A8.463,8.463,0,1,1,0,8.463a.705.705,0,0,1,1.41,0A7.052,7.052,0,1,0,8.463,1.41a.705.705,0,1,1,0-1.41A8.472,8.472,0,0,1,16.925,8.463ZM7.248,7.757H5.642a.705.705,0,1,0,0,1.41H7.248a1.406,1.406,0,1,0,1.92-1.92V4.937a.705.705,0,0,0-1.41,0V7.248a1.41,1.41,0,0,0-.51.51ZM1.288,6.195a.705.705,0,1,0-.705-.705A.705.705,0,0,0,1.288,6.195ZM2.977,3.672a.705.705,0,1,0-.705-.705A.705.705,0,0,0,2.977,3.672ZM5.486,2A.705.705,0,1,0,4.781,1.3.705.705,0,0,0,5.486,2Z" transform="translate(13 13)" fill="#fff"/>
</svg>
