<svg xmlns="http://www.w3.org/2000/svg" width="14.541" height="14.541" viewBox="0 0 14.541 14.541">
  <path id="fi-rr-box-alt" d="M11.512,0H3.029A3.033,3.033,0,0,0,0,3.029v8.482a3.033,3.033,0,0,0,3.029,3.029h8.482a3.033,3.033,0,0,0,3.029-3.029V3.029A3.033,3.033,0,0,0,11.512,0Zm1.818,3.029H9.088V1.212h2.424A1.818,1.818,0,0,1,13.329,3.029ZM6.665,1.212H7.877V4.241a.606.606,0,1,1-1.212,0Zm-3.635,0H5.453V3.029H1.212A1.818,1.818,0,0,1,3.029,1.212Zm8.482,12.118H3.029a1.818,1.818,0,0,1-1.818-1.818V4.241H5.453a1.818,1.818,0,0,0,3.635,0h4.241v7.271A1.818,1.818,0,0,1,11.512,13.329Zm.606-1.818a.606.606,0,0,1-.606.606H9.694a.606.606,0,0,1,0-1.212h1.818A.606.606,0,0,1,12.118,11.512Z" fill="#f39947"/>
</svg>
